<svg width="20" height="20" viewBox="0 0 20 20" fill="none" xmlns="http://www.w3.org/2000/svg">
<path d="M18.3333 6.89169V3.52502C18.3333 2.20002 17.8 1.66669 16.475 1.66669H13.1083C11.7833 1.66669 11.25 2.20002 11.25 3.52502V6.89169C11.25 8.21669 11.7833 8.75002 13.1083 8.75002H16.475C17.8 8.75002 18.3333 8.21669 18.3333 6.89169Z" stroke="#292D32" stroke-width="1.5" stroke-linecap="round" stroke-linejoin="round"/>
<path d="M8.74999 7.10002V3.31669C8.74999 2.14169 8.21666 1.66669 6.89166 1.66669H3.52499C2.19999 1.66669 1.66666 2.14169 1.66666 3.31669V7.09169C1.66666 8.27502 2.19999 8.74169 3.52499 8.74169H6.89166C8.21666 8.75002 8.74999 8.27502 8.74999 7.10002Z" stroke="#292D32" stroke-width="1.5" stroke-linecap="round" stroke-linejoin="round"/>
<path d="M8.74999 16.475V13.1083C8.74999 11.7833 8.21666 11.25 6.89166 11.25H3.52499C2.19999 11.25 1.66666 11.7833 1.66666 13.1083V16.475C1.66666 17.8 2.19999 18.3333 3.52499 18.3333H6.89166C8.21666 18.3333 8.74999 17.8 8.74999 16.475Z" stroke="#292D32" stroke-width="1.5" stroke-linecap="round" stroke-linejoin="round"/>
<path d="M12.5 12.9167H17.5" stroke="#292D32" stroke-width="1.5" stroke-linecap="round"/>
<path d="M12.5 16.25H17.5" stroke="#292D32" stroke-width="1.5" stroke-linecap="round"/>
</svg>
