<svg width="20" height="20" viewBox="0 0 20 20" fill="none" xmlns="http://www.w3.org/2000/svg">
<path d="M9.99999 6.57501L9.10832 8.12501C8.90832 8.46668 9.07499 8.75001 9.46666 8.75001H10.525C10.925 8.75001 11.0833 9.03335 10.8833 9.37501L9.99999 10.925" stroke="#292D32" stroke-width="1.5" stroke-linecap="round" stroke-linejoin="round"/>
<path d="M6.91665 15.0333V14.0667C4.99999 12.9083 3.42499 10.65 3.42499 8.25C3.42499 4.125 7.21666 0.891671 11.5 1.825C13.3833 2.24167 15.0333 3.49167 15.8917 5.21667C17.6333 8.71667 15.8 12.4333 13.1083 14.0583V15.025C13.1083 15.2667 13.2 15.825 12.3083 15.825H7.71665C6.79999 15.8333 6.91665 15.475 6.91665 15.0333Z" stroke="#292D32" stroke-width="1.5" stroke-linecap="round" stroke-linejoin="round"/>
<path d="M7.08334 18.3333C8.99168 17.7917 11.0083 17.7917 12.9167 18.3333" stroke="#292D32" stroke-width="1.5" stroke-linecap="round" stroke-linejoin="round"/>
</svg>
