<svg width="20" height="20" viewBox="0 0 20 20" fill="none" xmlns="http://www.w3.org/2000/svg">
<path d="M1.66666 8.31666V7.49999C1.66666 3.33332 3.33332 1.66666 7.49999 1.66666H12.5C16.6667 1.66666 18.3333 3.33332 18.3333 7.49999V12.5C18.3333 16.6667 16.6667 18.3333 12.5 18.3333H11.6667" stroke="#292D32" stroke-width="1.5" stroke-linecap="round" stroke-linejoin="round"/>
<path d="M10.8333 9.16667L15.0083 4.98334H11.6667" stroke="#292D32" stroke-width="1.5" stroke-linecap="round" stroke-linejoin="round"/>
<path d="M15.0083 4.98334V8.325" stroke="#292D32" stroke-width="1.5" stroke-linecap="round" stroke-linejoin="round"/>
<path d="M9.16666 13.4583V15.7083C9.16666 17.5833 8.41666 18.3333 6.54166 18.3333H4.29166C2.41666 18.3333 1.66666 17.5833 1.66666 15.7083V13.4583C1.66666 11.5833 2.41666 10.8333 4.29166 10.8333H6.54166C8.41666 10.8333 9.16666 11.5833 9.16666 13.4583Z" stroke="#292D32" stroke-width="1.5" stroke-linecap="round" stroke-linejoin="round"/>
</svg>
