<svg width="20" height="20" viewBox="0 0 20 20" fill="none" xmlns="http://www.w3.org/2000/svg">
<path d="M7.22656 11.9416C7.22656 13.0166 8.05156 13.8832 9.07656 13.8832H11.1682C12.0599 13.8832 12.7849 13.1249 12.7849 12.1916C12.7849 11.1749 12.3432 10.8166 11.6849 10.5832L8.32656 9.41658C7.66823 9.18324 7.22656 8.82491 7.22656 7.80824C7.22656 6.87491 7.95156 6.11658 8.84323 6.11658H10.9349C11.9599 6.11658 12.7849 6.98324 12.7849 8.05824" stroke="#360083" stroke-width="1.5" stroke-linecap="round" stroke-linejoin="round"/>
<path d="M10 5V15" stroke="#360083" stroke-width="1.5" stroke-linecap="round" stroke-linejoin="round"/>
<path d="M9.99984 18.3333C14.6022 18.3333 18.3332 14.6023 18.3332 9.99996C18.3332 5.39759 14.6022 1.66663 9.99984 1.66663C5.39746 1.66663 1.6665 5.39759 1.6665 9.99996C1.6665 14.6023 5.39746 18.3333 9.99984 18.3333Z" stroke="#360083" stroke-width="1.5" stroke-linecap="round" stroke-linejoin="round"/>
</svg>
