<svg width="36" height="36" viewBox="0 0 36 36" fill="none" xmlns="http://www.w3.org/2000/svg">
<path d="M24.285 3H11.715C6.255 3 3 6.255 3 11.715V24.27C3 29.745 6.255 33 11.715 33H24.27C29.73 33 32.985 29.745 32.985 24.285V11.715C33 6.255 29.745 3 24.285 3ZM18 9C20.985 9 23.4 11.415 23.4 14.4C23.4 15.105 23.265 15.78 23.025 16.395C22.41 17.955 21.075 19.17 19.425 19.62C18.975 19.74 18.495 19.815 18 19.815C17.505 19.815 17.025 19.755 16.575 19.62C14.925 19.17 13.59 17.97 12.975 16.395C12.735 15.78 12.6 15.105 12.6 14.4C12.6 11.415 15.015 9 18 9ZM14.4 27C11.415 27 9 24.585 9 21.6C9 19.7974 9.89278 18.1998 11.2456 17.2186C11.4921 17.0397 11.8295 17.1594 11.9661 17.4316C12.8201 19.1337 14.3752 20.4044 16.215 20.895C16.785 21.06 17.37 21.135 18 21.135C18.4135 21.135 18.8067 21.1011 19.1887 21.0333C19.4844 20.9808 19.7857 21.1718 19.7977 21.4719C19.7992 21.5099 19.8 21.5476 19.8 21.585C19.8 23.175 19.11 24.615 18 25.605C17.04 26.475 15.78 27 14.4 27ZM21.6 27C20.9574 27 20.3307 26.8893 19.7542 26.6794C19.4348 26.5631 19.3763 26.1567 19.5946 25.8962C20.5918 24.7064 21.15 23.1817 21.15 21.6C21.15 21.3 21.12 20.985 21.075 20.7C21.0482 20.5302 21.1347 20.3634 21.2848 20.2796C22.4548 19.6265 23.42 18.6447 24.0211 17.4348C24.1569 17.1615 24.4946 17.0395 24.7424 17.2177C26.1067 18.1989 27 19.7968 27 21.6C27 24.585 24.585 27 21.6 27Z" fill="#2E90FA"/>
</svg>
